<svg viewBox="0 0 170 28" fill="white" xmlns="http://www.w3.org/2000/svg">
<path fill-rule="evenodd" clip-rule="evenodd" d="M13.0401 0.348724C16.8368 0.348724 19.9593 1.60278 22.4076 4.11088C24.8205 6.58316 26.0269 9.95119 26.0269 14.215C26.0269 18.3713 24.8205 21.6855 22.4076 24.1578C19.9593 26.5943 16.8368 27.8125 13.0401 27.8125C9.24337 27.8125 6.12086 26.5943 3.67252 24.1578C1.22418 21.6855 0 18.3713 0 14.215C0 9.95119 1.22418 6.58316 3.67252 4.11088C6.12086 1.60278 9.24337 0.348724 13.0401 0.348724ZM8.24984 20.7181C9.42079 22.1872 11.0175 22.9217 13.0401 22.9217C15.0981 22.9217 16.6948 22.1872 17.8303 20.7181C18.9658 19.2849 19.5335 17.1172 19.5335 14.215C19.5335 11.3127 18.9658 9.14501 17.8303 7.71181C16.6948 6.2786 15.0981 5.562 13.0401 5.562C11.0175 5.562 9.42079 6.2786 8.24984 7.71181C7.11438 9.14501 6.54665 11.3127 6.54665 14.215C6.54665 17.1172 7.11438 19.2849 8.24984 20.7181Z" />
<path fill-rule="evenodd" clip-rule="evenodd" d="M35.2348 21.0406V27.8125H28.7414V3.19722C28.7414 2.37313 29.0075 1.69235 29.5398 1.1549C30.0365 0.61745 30.693 0.348724 31.5091 0.348724H40.9299C44.0879 0.348724 46.6427 1.36988 48.5942 3.4122C50.5458 5.45451 51.5216 7.87304 51.5216 10.6678C51.5216 13.4267 50.5636 15.8452 48.6475 17.9234C46.7669 20.0015 44.1766 21.0406 40.8767 21.0406H35.2348ZM35.2348 16.0961H39.067C41.125 16.0961 42.704 15.5944 43.804 14.5912C44.904 13.5879 45.454 12.2085 45.454 10.4528C45.454 8.98378 44.9572 7.76555 43.9637 6.79814C42.9702 5.7949 41.3734 5.29328 39.1735 5.29328H35.2348V16.0961Z" />
<path d="M75.4195 0.348724V5.29328H67.9148V27.8125H64.2423C63.4262 27.8125 62.752 27.5438 62.2198 27.0063C61.6875 26.5047 61.4214 25.8418 61.4214 25.0177V5.29328H53.9167L55.3538 0.348724H75.4195Z" />
<path d="M84.6274 0.348724V25.0177C84.6274 25.8418 84.3613 26.5047 83.829 27.0063C83.3323 27.5438 82.6759 27.8125 81.8597 27.8125H78.134V0.348724H84.6274Z" />
<path d="M87.2887 14.215C87.2887 9.95119 88.5128 6.58316 90.9612 4.11088C93.374 1.60278 96.4966 0.348724 100.329 0.348724H107.514V5.562H101.659C96.5853 5.562 94.0482 8.44633 94.0482 14.215C94.0482 20.0194 96.5853 22.9217 101.659 22.9217H107.514V27.8125H100.329C96.532 27.8125 93.4095 26.5943 90.9612 24.1578C88.5128 21.6855 87.2887 18.3713 87.2887 14.215Z" />
<path d="M116.828 22.9217H128.91L127.527 27.8125H112.89C112.18 27.8125 111.577 27.5617 111.08 27.0601C110.548 26.5226 110.282 25.8418 110.282 25.0177V0.348724H128.219V5.29328H116.828V11.1515H126.09V16.0961H116.828V22.9217Z" />
<path d="M137.959 22.9217H149.083L147.699 27.8125H131.465V3.19722C131.465 2.37313 131.714 1.69235 132.21 1.1549C132.743 0.61745 133.417 0.348724 134.233 0.348724H137.959V22.9217Z" />
<path d="M158.131 22.9217H169.308L167.924 27.8125H151.637V3.19722C151.637 2.37313 151.904 1.69235 152.436 1.1549C152.968 0.61745 153.642 0.348724 154.458 0.348724H158.131V22.9217Z" />
</svg>
