<svg viewBox="0 0 64 64" xmlns="http://www.w3.org/2000/svg">
<path fill-rule="evenodd" clip-rule="evenodd" d="M60.1666 32C60.1666 16.4436 47.5564 3.83337 32 3.83337C16.4435 3.83337 3.8333 16.4436 3.8333 32C3.8333 47.5565 16.4435 60.1667 32 60.1667C47.5564 60.1667 60.1666 47.5565 60.1666 32ZM32 6.83337C45.8995 6.83337 57.1666 18.1005 57.1666 32C57.1666 45.8996 45.8995 57.1667 32 57.1667C18.1004 57.1667 6.8333 45.8996 6.8333 32C6.8333 18.1005 18.1004 6.83337 32 6.83337Z" />
<path fill-rule="evenodd" clip-rule="evenodd" d="M32.0607 20.9393C31.4749 20.3536 30.5251 20.3536 29.9393 20.9393L19.9393 30.9393C19.3536 31.5251 19.3536 32.4749 19.9393 33.0607L29.9393 43.0607C30.5251 43.6464 31.4749 43.6464 32.0607 43.0607C32.6464 42.4749 32.6464 41.5251 32.0607 40.9393L24.6213 33.5H43C43.8284 33.5 44.5 32.8284 44.5 32C44.5 31.1716 43.8284 30.5 43 30.5H24.6213L32.0607 23.0607C32.6464 22.4749 32.6464 21.5251 32.0607 20.9393Z" />
</svg>
