<svg viewBox="0 0 64 64" xmlns="http://www.w3.org/2000/svg">
<path fill-rule="evenodd" clip-rule="evenodd" d="M3.83337 32C3.83337 16.4436 16.4436 3.83337 32 3.83337C47.5565 3.83337 60.1667 16.4436 60.1667 32C60.1667 47.5565 47.5565 60.1667 32 60.1667C16.4436 60.1667 3.83337 47.5565 3.83337 32ZM32 6.83337C18.1005 6.83337 6.83337 18.1005 6.83337 32C6.83337 45.8996 18.1005 57.1667 32 57.1667C45.8996 57.1667 57.1667 45.8996 57.1667 32C57.1667 18.1005 45.8996 6.83337 32 6.83337Z" />
<path fill-rule="evenodd" clip-rule="evenodd" d="M31.9393 20.9393C32.5251 20.3536 33.4749 20.3536 34.0607 20.9393L44.0607 30.9393C44.6464 31.5251 44.6464 32.4749 44.0607 33.0607L34.0607 43.0607C33.4749 43.6464 32.5251 43.6464 31.9393 43.0607C31.3536 42.4749 31.3536 41.5251 31.9393 40.9393L39.3787 33.5H21C20.1716 33.5 19.5 32.8284 19.5 32C19.5 31.1716 20.1716 30.5 21 30.5H39.3787L31.9393 23.0607C31.3536 22.4749 31.3536 21.5251 31.9393 20.9393Z" />
</svg>
