<svg width="44" height="96" viewBox="0 0 44 96" xmlns="http://www.w3.org/2000/svg">
<path d="M17.952 18.4406C18.48 18.4406 18.876 18.7932 18.92 19.322V21.966C18.876 22.4949 18.48 22.8474 17.952 22.8474H4.92802C4.40002 22.8474 4.00402 22.4949 3.96002 21.966V19.322C4.00402 18.7932 4.40002 18.4406 4.92802 18.4406H17.952ZM17.952 17.9999H4.92802C4.18002 17.9559 3.56402 18.5288 3.52002 19.2779V19.322V21.966C3.56402 22.7152 4.18002 23.2881 4.92802 23.2881H17.952C18.7 23.3321 19.316 22.7593 19.36 22.0101V21.966V19.322C19.36 18.5728 18.744 17.9999 17.952 17.9999Z" />
<path d="M15.3998 18.4407C16.0158 18.4407 16.5438 18.8373 16.5438 19.322V21.9661C16.5438 22.4508 16.0158 22.8475 15.3998 22.8475H8.05177C7.43577 22.8475 6.90777 22.4508 6.90777 21.9661V19.322C6.90777 18.8373 7.43577 18.4407 8.05177 18.4407H15.3998ZM15.3998 18H8.05177C7.17177 18 6.46777 18.5729 6.46777 19.322V21.9661C6.46777 22.6712 7.17177 23.2881 8.05177 23.2881H15.3998C16.2798 23.2881 16.9838 22.7153 16.9838 21.9661V19.322C16.9838 18.5729 16.2798 18 15.3998 18Z" />
<path d="M42.064 23.2883C42.9 23.2883 43.56 23.9494 43.56 24.7426C43.56 24.7426 43.56 24.7426 43.56 24.7866V94.0612C43.56 94.8985 42.9 95.5595 42.108 95.5595C42.108 95.5595 42.108 95.5595 42.064 95.5595H1.936C1.1 95.5595 0.44 94.8985 0.44 94.1053C0.44 94.1053 0.44 94.1053 0.44 94.0612V24.7866C0.44 23.9494 1.1 23.2883 1.892 23.2883C1.892 23.2883 1.892 23.2883 1.936 23.2883H42.064ZM42.064 22.8477H1.936C0.88 22.8477 0 23.729 0 24.7866V94.0612C0 95.1188 0.88 96.0002 1.936 96.0002H42.064C43.12 96.0002 44 95.1188 44 94.0612V24.7866C44 23.729 43.12 22.8477 42.064 22.8477Z" />
<path d="M39.6 18.4407V21.3492L38.368 22.8475H31.504L29.92 21.3492V18.4407H39.6ZM40.04 18H29.48V21.5254L31.328 23.2881H38.544L40.04 21.5254V18Z" />
<path d="M17.952 18.4406C18.48 18.4406 18.876 18.7932 18.92 19.322V21.966C18.876 22.4949 18.48 22.8474 17.952 22.8474H4.92802C4.40002 22.8474 4.00402 22.4949 3.96002 21.966V19.322C4.00402 18.7932 4.40002 18.4406 4.92802 18.4406H17.952ZM17.952 17.9999H4.92802C4.18002 17.9559 3.56402 18.5288 3.52002 19.2779V19.322V21.966C3.56402 22.7152 4.18002 23.2881 4.92802 23.2881H17.952C18.7 23.3321 19.316 22.7593 19.36 22.0101V21.966V19.322C19.36 18.5728 18.744 17.9999 17.952 17.9999Z" />
<path d="M15.3998 18.4407C16.0158 18.4407 16.5438 18.8373 16.5438 19.322V21.9661C16.5438 22.4508 16.0158 22.8475 15.3998 22.8475H8.05177C7.43577 22.8475 6.90777 22.4508 6.90777 21.9661V19.322C6.90777 18.8373 7.43577 18.4407 8.05177 18.4407H15.3998ZM15.3998 18H8.05177C7.17177 18 6.46777 18.5729 6.46777 19.322V21.9661C6.46777 22.6712 7.17177 23.2881 8.05177 23.2881H15.3998C16.2798 23.2881 16.9838 22.7153 16.9838 21.9661V19.322C16.9838 18.5729 16.2798 18 15.3998 18Z" />
<path d="M42.064 23.2883C42.9 23.2883 43.56 23.9494 43.56 24.7426C43.56 24.7426 43.56 24.7426 43.56 24.7866V94.0612C43.56 94.8985 42.9 95.5595 42.108 95.5595C42.108 95.5595 42.108 95.5595 42.064 95.5595H1.936C1.1 95.5595 0.44 94.8985 0.44 94.1053C0.44 94.1053 0.44 94.1053 0.44 94.0612V24.7866C0.44 23.9494 1.1 23.2883 1.892 23.2883C1.892 23.2883 1.892 23.2883 1.936 23.2883H42.064ZM42.064 22.8477H1.936C0.88 22.8477 0 23.729 0 24.7866V94.0612C0 95.1188 0.88 96.0002 1.936 96.0002H42.064C43.12 96.0002 44 95.1188 44 94.0612V24.7866C44 23.729 43.12 22.8477 42.064 22.8477Z" />
<path d="M39.6 18.4407V21.3492L38.368 22.8475H31.504L29.92 21.3492V18.4407H39.6ZM40.04 18H29.48V21.5254L31.328 23.2881H38.544L40.04 21.5254V18Z" />
<path d="M17.952 18.4406C18.48 18.4406 18.876 18.7932 18.92 19.322V21.966C18.876 22.4949 18.48 22.8474 17.952 22.8474H4.92802C4.40002 22.8474 4.00402 22.4949 3.96002 21.966V19.322C4.00402 18.7932 4.40002 18.4406 4.92802 18.4406H17.952ZM17.952 17.9999H4.92802C4.18002 17.9559 3.56402 18.5288 3.52002 19.2779V19.322V21.966C3.56402 22.7152 4.18002 23.2881 4.92802 23.2881H17.952C18.7 23.3321 19.316 22.7593 19.36 22.0101V21.966V19.322C19.36 18.5728 18.744 17.9999 17.952 17.9999Z" />
<path d="M15.3998 18.4407C16.0158 18.4407 16.5438 18.8373 16.5438 19.322V21.9661C16.5438 22.4508 16.0158 22.8475 15.3998 22.8475H8.05177C7.43577 22.8475 6.90777 22.4508 6.90777 21.9661V19.322C6.90777 18.8373 7.43577 18.4407 8.05177 18.4407H15.3998ZM15.3998 18H8.05177C7.17177 18 6.46777 18.5729 6.46777 19.322V21.9661C6.46777 22.6712 7.17177 23.2881 8.05177 23.2881H15.3998C16.2798 23.2881 16.9838 22.7153 16.9838 21.9661V19.322C16.9838 18.5729 16.2798 18 15.3998 18Z" />
<path d="M42.064 23.2883C42.9 23.2883 43.56 23.9494 43.56 24.7426C43.56 24.7426 43.56 24.7426 43.56 24.7866V94.0612C43.56 94.8985 42.9 95.5595 42.108 95.5595C42.108 95.5595 42.108 95.5595 42.064 95.5595H1.936C1.1 95.5595 0.44 94.8985 0.44 94.1053C0.44 94.1053 0.44 94.1053 0.44 94.0612V24.7866C0.44 23.9494 1.1 23.2883 1.892 23.2883C1.892 23.2883 1.892 23.2883 1.936 23.2883H42.064ZM42.064 22.8477H1.936C0.88 22.8477 0 23.729 0 24.7866V94.0612C0 95.1188 0.88 96.0002 1.936 96.0002H42.064C43.12 96.0002 44 95.1188 44 94.0612V24.7866C44 23.729 43.12 22.8477 42.064 22.8477Z" />
<path d="M39.5998 18.4407V21.3492L38.3678 22.8475H31.5038L29.9198 21.3492V18.4407H39.5998ZM40.0398 18H29.4798V21.5254L31.3278 23.2881H38.5438L40.0398 21.5254V18ZM39.2478 83.7492C39.2478 85.6881 38.4558 87.539 37.1358 88.9492L35.6838 87.8034C36.8278 86.7017 37.4878 85.1593 37.4878 83.5729C37.4878 80.4881 34.4078 78.3729 30.0518 78.5492C31.7678 79.5627 32.8238 81.4136 32.8238 83.4407C32.8238 87.0102 30.5358 89.4339 27.4558 89.4339C24.1998 89.478 21.6038 86.878 21.5598 83.661C21.5598 83.5288 21.5598 83.3966 21.5598 83.2644C21.5158 81.5458 22.1318 79.9153 23.3638 78.7254C24.6398 77.4475 26.6198 76.6102 30.0078 76.6102C35.3758 76.6102 39.2478 79.5186 39.2478 83.7492ZM23.3638 83.2644C23.2758 85.4237 24.9478 87.2305 27.1038 87.3186C27.1918 87.3186 27.3238 87.3186 27.4118 87.3186C29.5238 87.2746 31.1958 85.5559 31.1518 83.4407C31.1518 83.3085 31.1518 83.2203 31.1518 83.0881C31.2398 80.8848 29.5678 78.9898 27.3238 78.8576C27.2798 78.8576 27.2798 78.8576 27.2358 78.8576C24.9918 78.9458 23.2318 80.8407 23.3198 83.0881C23.3638 83.1763 23.3638 83.2203 23.3638 83.2644ZM21.9118 57.4407V55.3254L39.1158 62.6407V64.2712L21.9118 71.5864V69.4712L36.5198 63.478L21.9118 57.4407Z" />
</svg>
