<svg width="41" height="96" viewBox="0 0 41 96" xmlns="http://www.w3.org/2000/svg">
<path d="M39.8211 15.2076C40.2577 15.2076 40.607 15.5608 40.607 16.0023V92.9539C40.607 93.3954 40.2577 93.7486 39.8211 93.7486H1.22258C0.785942 93.7486 0.436635 93.3954 0.436635 92.9539V16.0023C0.436635 15.5608 0.785942 15.2076 1.22258 15.2076H39.8211ZM39.8211 14.7661H1.22258C0.567625 14.7661 0 15.34 0 16.0023V92.9539C0 93.6161 0.567625 94.19 1.22258 94.19H39.7774C40.4324 94.19 41 93.6161 41 92.9539V16.0023C41 15.34 40.5197 14.8103 39.8211 14.7661Z" />
<path d="M1.74658 95.5585H38.8605V96H1.74658V95.5585ZM25.7615 13.4415C25.9798 13.4415 26.1981 13.6181 26.1981 13.8388V13.883V14.3245C26.1981 14.5452 26.0235 14.766 25.8052 14.766H25.7615H15.2823C15.0639 14.766 14.8456 14.5894 14.8456 14.3686V14.3245V13.883C14.8456 13.6622 15.0203 13.4415 15.2386 13.4415H15.2823H25.7615ZM25.7615 13H15.2823C14.802 13 14.409 13.3973 14.409 13.883V14.3245C14.409 14.8101 14.802 15.2074 15.2823 15.2074H25.7615C26.2418 15.2074 26.6348 14.8101 26.6348 14.3245V13.883C26.6348 13.3973 26.2418 13 25.7615 13Z" />
<path d="M39.8211 15.2076C40.2577 15.2076 40.607 15.5608 40.607 16.0023V92.9539C40.607 93.3954 40.2577 93.7486 39.8211 93.7486H1.22258C0.785942 93.7486 0.436635 93.3954 0.436635 92.9539V16.0023C0.436635 15.5608 0.785942 15.2076 1.22258 15.2076H39.8211ZM39.8211 14.7661H1.22258C0.567625 14.7661 0 15.34 0 16.0023V92.9539C0 93.6161 0.567625 94.19 1.22258 94.19H39.7774C40.4324 94.19 41 93.6161 41 92.9539V16.0023C41 15.34 40.5197 14.8103 39.8211 14.7661Z" />
<path d="M1.74658 95.5585H38.8605V96H1.74658V95.5585ZM25.7615 13.4415C25.9798 13.4415 26.1981 13.6181 26.1981 13.8388V13.883V14.3245C26.1981 14.5452 26.0235 14.766 25.8052 14.766H25.7615H15.2823C15.0639 14.766 14.8456 14.5894 14.8456 14.3686V14.3245V13.883C14.8456 13.6622 15.0203 13.4415 15.2386 13.4415H15.2823H25.7615ZM25.7615 13H15.2823C14.802 13 14.409 13.3973 14.409 13.883V14.3245C14.409 14.8101 14.802 15.2074 15.2823 15.2074H25.7615C26.2418 15.2074 26.6348 14.8101 26.6348 14.3245V13.883C26.6348 13.3973 26.2418 13 25.7615 13Z" />
<path d="M39.8211 15.2076C40.2577 15.2076 40.607 15.5608 40.607 16.0023V92.9539C40.607 93.3954 40.2577 93.7486 39.8211 93.7486H1.22258C0.785942 93.7486 0.436635 93.3954 0.436635 92.9539V16.0023C0.436635 15.5608 0.785942 15.2076 1.22258 15.2076H39.8211ZM39.8211 14.7661H1.22258C0.567625 14.7661 0 15.34 0 16.0023V92.9539C0 93.6161 0.567625 94.19 1.22258 94.19H39.7774C40.4324 94.19 41 93.6161 41 92.9539V16.0023C41 15.34 40.5197 14.8103 39.8211 14.7661Z" />
<path d="M1.74658 95.5585H38.8605V96H1.74658V95.5585ZM25.7615 13.4415C25.9798 13.4415 26.1981 13.6181 26.1981 13.8388V13.883V14.3245C26.1981 14.5452 26.0235 14.766 25.8052 14.766H25.7615H15.2823C15.0639 14.766 14.8456 14.5894 14.8456 14.3686V14.3245V13.883C14.8456 13.6622 15.0203 13.4415 15.2386 13.4415H15.2823H25.7615ZM25.7615 13H15.2823C14.802 13 14.409 13.3973 14.409 13.883V14.3245C14.409 14.8101 14.802 15.2074 15.2823 15.2074H25.7615C26.2418 15.2074 26.6348 14.8101 26.6348 14.3245V13.883C26.6348 13.3973 26.2418 13 25.7615 13Z" />
<path d="M36.1971 80.8568C36.1971 85.5366 32.442 89.3334 27.8137 89.3776C27.77 89.3776 27.6827 89.3776 27.6391 89.3776C23.0544 89.51 19.212 85.8898 19.081 81.2542C19.081 81.1217 19.081 80.9893 19.081 80.8568C19.0374 78.3845 19.9979 76.0005 21.7882 74.2787L23.229 75.559C21.8318 76.9717 21.0459 78.8701 21.0022 80.8568C21.0022 84.6536 24.0587 87.7441 27.8137 87.7441C31.5688 87.7441 34.6252 84.6536 34.6252 80.8568C34.5815 78.7818 33.7083 76.8393 32.2237 75.3824L33.49 74.1021C35.1928 75.9563 36.1534 78.3404 36.1971 80.8568Z" />
</svg>
