<svg width="22" height="96" viewBox="0 0 22 96" xmlns="http://www.w3.org/2000/svg">
<path d="M20.7655 13.1906C21.2064 13.1906 21.6032 13.5411 21.6032 13.9792V93.0643C21.6032 93.5024 21.2064 93.853 20.7655 93.853H1.27856C0.837675 93.853 0.440882 93.5462 0.440882 93.1081C0.440882 93.1081 0.440882 93.1081 0.440882 93.0643V13.9792C0.440882 13.5411 0.837675 13.1906 1.27856 13.1906H20.7655ZM20.7655 12.7524H1.27856C0.573146 12.7524 0 13.2782 0 13.9354C0 13.9354 0 13.9354 0 13.9792V93.0643C0 93.7653 0.573146 94.2911 1.27856 94.2911H20.7214C21.4269 94.2911 22 93.7653 22 93.1081C22 93.1081 22 93.1081 22 93.0643V13.9792C22.0441 13.322 21.515 12.7963 20.8537 12.7524C20.8537 12.7524 20.8096 12.7524 20.7655 12.7524Z" />
<path d="M16.3127 11.4381C16.5332 11.4381 16.7536 11.6134 16.7536 11.8325V11.8763V12.3144C16.7536 12.5335 16.5773 12.7526 16.3568 12.7526H16.3127H5.73157C5.51113 12.7526 5.29069 12.5773 5.29069 12.3582V12.3144V11.8763C5.29069 11.6572 5.46704 11.4381 5.68748 11.4381H5.73157H16.3127ZM16.3127 11H5.73157C5.2466 11 4.84981 11.3943 4.84981 11.8763V12.3144C4.84981 12.7964 5.2466 13.1907 5.73157 13.1907H16.3127C16.7977 13.1907 17.1945 12.7964 17.1945 12.3144V11.8763C17.1945 11.3943 16.7977 11 16.3127 11ZM1.32275 95.5619H20.7216V96H1.32275V95.5619Z" />
<path d="M20.7655 13.1906C21.2064 13.1906 21.6032 13.5411 21.6032 13.9792V93.0643C21.6032 93.5024 21.2064 93.853 20.7655 93.853H1.27856C0.837675 93.853 0.440882 93.5462 0.440882 93.1081C0.440882 93.1081 0.440882 93.1081 0.440882 93.0643V13.9792C0.440882 13.5411 0.837675 13.1906 1.27856 13.1906H20.7655ZM20.7655 12.7524H1.27856C0.573146 12.7524 0 13.2782 0 13.9354C0 13.9354 0 13.9354 0 13.9792V93.0643C0 93.7653 0.573146 94.2911 1.27856 94.2911H20.7214C21.4269 94.2911 22 93.7653 22 93.1081C22 93.1081 22 93.1081 22 93.0643V13.9792C22.0441 13.322 21.515 12.7963 20.8537 12.7524C20.8537 12.7524 20.8096 12.7524 20.7655 12.7524Z" />
<path d="M16.3127 11.4381C16.5332 11.4381 16.7536 11.6134 16.7536 11.8325V11.8763V12.3144C16.7536 12.5335 16.5773 12.7526 16.3568 12.7526H16.3127H5.73157C5.51113 12.7526 5.29069 12.5773 5.29069 12.3582V12.3144V11.8763C5.29069 11.6572 5.46704 11.4381 5.68748 11.4381H5.73157H16.3127ZM16.3127 11H5.73157C5.2466 11 4.84981 11.3943 4.84981 11.8763V12.3144C4.84981 12.7964 5.2466 13.1907 5.73157 13.1907H16.3127C16.7977 13.1907 17.1945 12.7964 17.1945 12.3144V11.8763C17.1945 11.3943 16.7977 11 16.3127 11ZM17.6354 75.6701V77.335L14.0642 78.8686V86.0979L17.6354 87.6314V89.1649L4.10031 83.0309V81.6289L17.6354 75.6701ZM5.86384 82.5051L12.7857 85.5722V79.482L5.86384 82.5051ZM17.6354 58.8892V60.5541L14.0642 62.0876V69.317L17.6354 70.8505V72.384L4.10031 66.25V64.8479L17.6354 58.8892ZM5.86384 65.6366L12.7857 68.7036V62.6134L5.86384 65.6366ZM1.32275 95.5619H20.7216V96H1.32275V95.5619Z" />
<path d="M20.7655 13.1906C21.2064 13.1906 21.6032 13.5411 21.6032 13.9792V93.0643C21.6032 93.5024 21.2064 93.853 20.7655 93.853H1.27856C0.837675 93.853 0.440882 93.5462 0.440882 93.1081C0.440882 93.1081 0.440882 93.1081 0.440882 93.0643V13.9792C0.440882 13.5411 0.837675 13.1906 1.27856 13.1906H20.7655ZM20.7655 12.7524H1.27856C0.573146 12.7524 0 13.2782 0 13.9354C0 13.9354 0 13.9354 0 13.9792V93.0643C0 93.7653 0.573146 94.2911 1.27856 94.2911H20.7214C21.4269 94.2911 22 93.7653 22 93.1081C22 93.1081 22 93.1081 22 93.0643V13.9792C22.0441 13.322 21.515 12.7963 20.8537 12.7524C20.8537 12.7524 20.8096 12.7524 20.7655 12.7524Z" />
<path d="M16.3127 11.4381C16.5332 11.4381 16.7536 11.6134 16.7536 11.8325V11.8763V12.3144C16.7536 12.5335 16.5773 12.7526 16.3568 12.7526H16.3127H5.73157C5.51113 12.7526 5.29069 12.5773 5.29069 12.3582V12.3144V11.8763C5.29069 11.6572 5.46704 11.4381 5.68748 11.4381H5.73157H16.3127ZM16.3127 11H5.73157C5.2466 11 4.84981 11.3943 4.84981 11.8763V12.3144C4.84981 12.7964 5.2466 13.1907 5.73157 13.1907H16.3127C16.7977 13.1907 17.1945 12.7964 17.1945 12.3144V11.8763C17.1945 11.3943 16.7977 11 16.3127 11ZM1.32275 95.5619H20.7216V96H1.32275V95.5619Z" />
</svg>
