<svg width="54" height="96" viewBox="0 0 54 96" xmlns="http://www.w3.org/2000/svg">
<path d="M52.6065 2.2016C53.129 2.2016 53.5645 2.64196 53.5645 3.21444V92.7851C53.5645 93.3135 53.1726 93.7979 52.6065 93.7979H1.39355C0.870968 93.7979 0.435484 93.3576 0.435484 92.7851V3.21444C0.435484 2.686 0.827419 2.2016 1.39355 2.2016H52.6065ZM52.6065 1.76123H1.39355C0.609677 1.76123 0 2.42178 0 3.21444V92.7851C0 93.5777 0.609677 94.2383 1.39355 94.2383H52.6065C53.3903 94.2383 54 93.5777 54 92.7851V3.21444C54 2.42178 53.3903 1.76123 52.6065 1.76123Z" />
<path d="M32.226 0.440367C32.4437 0.440367 32.6615 0.616514 32.6615 0.836697V0.880734V1.3211C32.6615 1.54128 32.4873 1.76147 32.2695 1.76147H32.226H21.7744C21.5566 1.76147 21.3389 1.58532 21.3389 1.36514V1.3211V0.880734C21.3389 0.66055 21.5131 0.440367 21.7308 0.440367H21.7744H32.226ZM32.226 0H21.7744C21.2954 0 20.9034 0.39633 20.9034 0.880734V1.3211C20.9034 1.8055 21.2954 2.20183 21.7744 2.20183H32.226C32.705 2.20183 33.097 1.8055 33.097 1.3211V0.880734C33.097 0.39633 32.705 0 32.226 0ZM1.30664 95.5596H52.6937V96H1.30664V95.5596Z" />
<path d="M52.6065 2.2016C53.129 2.2016 53.5645 2.64196 53.5645 3.21444V92.7851C53.5645 93.3135 53.1726 93.7979 52.6065 93.7979H1.39355C0.870968 93.7979 0.435484 93.3576 0.435484 92.7851V3.21444C0.435484 2.686 0.827419 2.2016 1.39355 2.2016H52.6065ZM52.6065 1.76123H1.39355C0.609677 1.76123 0 2.42178 0 3.21444V92.7851C0 93.5777 0.609677 94.2383 1.39355 94.2383H52.6065C53.3903 94.2383 54 93.5777 54 92.7851V3.21444C54 2.42178 53.3903 1.76123 52.6065 1.76123Z" />
<path d="M32.226 0.440367C32.4437 0.440367 32.6615 0.616514 32.6615 0.836697V0.880734V1.3211C32.6615 1.54128 32.4873 1.76147 32.2695 1.76147H32.226H21.7744C21.5566 1.76147 21.3389 1.58532 21.3389 1.36514V1.3211V0.880734C21.3389 0.66055 21.5131 0.440367 21.7308 0.440367H21.7744H32.226ZM32.226 0H21.7744C21.2954 0 20.9034 0.39633 20.9034 0.880734V1.3211C20.9034 1.8055 21.2954 2.20183 21.7744 2.20183H32.226C32.705 2.20183 33.097 1.8055 33.097 1.3211V0.880734C33.097 0.39633 32.705 0 32.226 0ZM1.30664 95.5596H52.6937V96H1.30664V95.5596Z" />
<path d="M52.6065 2.2016C53.129 2.2016 53.5645 2.64196 53.5645 3.21444V92.7851C53.5645 93.3135 53.1726 93.7979 52.6065 93.7979H1.39355C0.870968 93.7979 0.435484 93.3576 0.435484 92.7851V3.21444C0.435484 2.686 0.827419 2.2016 1.39355 2.2016H52.6065ZM52.6065 1.76123H1.39355C0.609677 1.76123 0 2.42178 0 3.21444V92.7851C0 93.5777 0.609677 94.2383 1.39355 94.2383H52.6065C53.3903 94.2383 54 93.5777 54 92.7851V3.21444C54 2.42178 53.3903 1.76123 52.6065 1.76123Z" />
<path d="M32.226 0.440367C32.4437 0.440367 32.6615 0.616514 32.6615 0.836697V0.880734V1.3211C32.6615 1.54128 32.4873 1.76147 32.2695 1.76147H32.226H21.7744C21.5566 1.76147 21.3389 1.58532 21.3389 1.36514V1.3211V0.880734C21.3389 0.66055 21.5131 0.440367 21.7308 0.440367H21.7744H32.226ZM32.226 0H21.7744C21.2954 0 20.9034 0.39633 20.9034 0.880734V1.3211C20.9034 1.8055 21.2954 2.20183 21.7744 2.20183H32.226C32.705 2.20183 33.097 1.8055 33.097 1.3211V0.880734C33.097 0.39633 32.705 0 32.226 0ZM1.30664 95.5596H52.6937V96H1.30664V95.5596ZM48.7744 83.1413V89.1743H31.4421V83.1413C31.1373 78.2973 34.7954 74.1138 39.5857 73.8055C39.7163 73.8055 39.8905 73.8055 40.0212 73.8055C44.8986 73.8495 48.8179 77.9009 48.7744 82.833C48.7744 82.9211 48.7744 83.0532 48.7744 83.1413ZM33.2276 83.1413V87.3248H46.9454V83.1413C47.2066 79.4422 44.5066 76.2716 40.8486 75.9633C40.6308 75.9633 40.4131 75.9193 40.1518 75.9633C36.4502 75.8312 33.3147 78.7817 33.2276 82.5248C33.2276 82.745 33.2276 82.9651 33.2276 83.1413Z" />
</svg>
