<svg width="15" height="96" viewBox="0 0 15 96" xmlns="http://www.w3.org/2000/svg">
<path d="M13.9853 26.7637C14.2941 26.7637 14.5588 27.0283 14.5588 27.337V93.2215C14.5588 93.5302 14.2941 93.7948 13.9853 93.7948H1.01471C0.705882 93.7948 0.441176 93.5302 0.441176 93.2215V27.337C0.441176 27.0283 0.705882 26.7637 1.01471 26.7637H13.9853ZM13.9853 26.3228H1.01471C0.485294 26.3228 0 26.7637 0 27.2929V27.337V93.2215C0 93.7507 0.441176 94.2358 0.970588 94.2358H1.01471H13.9853C14.5147 94.2358 15 93.7948 15 93.2656V93.2215V27.337C15 26.8078 14.5588 26.3228 13.9853 26.3228Z" />
<path d="M10.4559 25.441C10.8088 25.441 11.0294 25.6174 11.0294 25.7056V26.0584C11.0294 26.1466 10.8088 26.323 10.4559 26.323H4.54409C4.19115 26.323 3.97056 26.1466 3.97056 26.0584V25.7056C3.97056 25.6174 4.19115 25.441 4.54409 25.441H10.4559ZM10.4559 25H4.54409C3.97056 25 3.52938 25.3087 3.52938 25.7056V26.0584C3.52938 26.4553 3.97056 26.764 4.54409 26.764H10.5C11.0294 26.764 11.4706 26.4553 11.4706 26.0584V25.7056C11.4706 25.3087 11.0294 25 10.4559 25ZM0.882324 95.559H14.1176V96H0.882324V95.559Z" />
<path d="M13.9853 26.7637C14.2941 26.7637 14.5588 27.0283 14.5588 27.337V93.2215C14.5588 93.5302 14.2941 93.7948 13.9853 93.7948H1.01471C0.705882 93.7948 0.441176 93.5302 0.441176 93.2215V27.337C0.441176 27.0283 0.705882 26.7637 1.01471 26.7637H13.9853ZM13.9853 26.3228H1.01471C0.485294 26.3228 0 26.7637 0 27.2929V27.337V93.2215C0 93.7507 0.441176 94.2358 0.970588 94.2358H1.01471H13.9853C14.5147 94.2358 15 93.7948 15 93.2656V93.2215V27.337C15 26.8078 14.5588 26.3228 13.9853 26.3228Z" />
<path d="M10.4559 25.441C10.8088 25.441 11.0294 25.6174 11.0294 25.7056V26.0584C11.0294 26.1466 10.8088 26.323 10.4559 26.323H4.54409C4.19115 26.323 3.97056 26.1466 3.97056 26.0584V25.7056C3.97056 25.6174 4.19115 25.441 4.54409 25.441H10.4559ZM10.4559 25H4.54409C3.97056 25 3.52938 25.3087 3.52938 25.7056V26.0584C3.52938 26.4553 3.97056 26.764 4.54409 26.764H10.5C11.0294 26.764 11.4706 26.4553 11.4706 26.0584V25.7056C11.4706 25.3087 11.0294 25 10.4559 25ZM0.882324 95.559H14.1176V96H0.882324V95.559Z" />
<path d="M13.9853 26.7637C14.2941 26.7637 14.5588 27.0283 14.5588 27.337V93.2215C14.5588 93.5302 14.2941 93.7948 13.9853 93.7948H1.01471C0.705882 93.7948 0.441176 93.5302 0.441176 93.2215V27.337C0.441176 27.0283 0.705882 26.7637 1.01471 26.7637H13.9853ZM13.9853 26.3228H1.01471C0.485294 26.3228 0 26.7637 0 27.2929V27.337V93.2215C0 93.7507 0.441176 94.2358 0.970588 94.2358H1.01471H13.9853C14.5147 94.2358 15 93.7948 15 93.2656V93.2215V27.337C15 26.8078 14.5588 26.3228 13.9853 26.3228Z" />
<path d="M10.4559 25.441C10.8088 25.441 11.0294 25.6174 11.0294 25.7056V26.0584C11.0294 26.1466 10.8088 26.323 10.4559 26.323H4.54409C4.19115 26.323 3.97056 26.1466 3.97056 26.0584V25.7056C3.97056 25.6174 4.19115 25.441 4.54409 25.441H10.4559ZM10.4559 25H4.54409C3.97056 25 3.52938 25.3087 3.52938 25.7056V26.0584C3.52938 26.4553 3.97056 26.764 4.54409 26.764H10.5C11.0294 26.764 11.4706 26.4553 11.4706 26.0584V25.7056C11.4706 25.3087 11.0294 25 10.4559 25ZM11.0294 82.3292V83.2112L9.13232 84.005V87.8857L11.0294 88.6795V89.4733L3.83821 86.2099V85.4603L11.0294 82.3292ZM4.80879 85.9894L8.47056 87.6211V84.3578L4.80879 85.9894ZM11.0294 73.377V74.259L9.13232 75.0528V78.9335L11.0294 79.7273V80.5211L3.83821 77.2578V76.5081L11.0294 73.377ZM4.80879 76.9932L8.47056 78.6248V75.3615L4.80879 76.9932ZM11.0294 64.3807V65.2627L9.13232 66.0565V69.9373L11.0294 70.7311V71.5248L3.83821 68.3056V67.6441L11.0294 64.3807ZM4.80879 67.9528L8.47056 69.5845V66.3211L4.80879 67.9528ZM0.882324 95.559H14.1176V96H0.882324V95.559Z" />
</svg>
