<svg viewBox="0 0 64 64" xmlns="http://www.w3.org/2000/svg">
<path fill-rule="evenodd" clip-rule="evenodd" d="M3.8335 32C3.8335 16.4436 16.4437 3.83337 32.0002 3.83337C47.5566 3.83337 60.1668 16.4436 60.1668 32C60.1668 47.5565 47.5566 60.1667 32.0002 60.1667C16.4437 60.1667 3.8335 47.5565 3.8335 32ZM32.0002 6.83337C18.1006 6.83337 6.8335 18.1005 6.8335 32C6.8335 45.8996 18.1006 57.1667 32.0002 57.1667C45.8997 57.1667 57.1668 45.8996 57.1668 32C57.1668 18.1005 45.8997 6.83337 32.0002 6.83337Z" />
<path fill-rule="evenodd" clip-rule="evenodd" d="M25.917 21.4637C26.3811 21.1957 26.9529 21.1957 27.417 21.4636L43.417 30.701C43.8811 30.9689 44.167 31.4641 44.167 32C44.167 32.5359 43.8811 33.0311 43.417 33.2991L27.417 42.5364C26.9529 42.8043 26.3811 42.8043 25.917 42.5364C25.4529 42.2684 25.167 41.7733 25.167 41.2374V22.7627C25.167 22.2268 25.4529 21.7316 25.917 21.4637ZM28.167 25.3607V38.6393L39.6669 32L28.167 25.3607Z" />
</svg>
