<svg viewBox="0 0 48 48" xmlns="http://www.w3.org/2000/svg">
<path fill-rule="evenodd" clip-rule="evenodd" d="M24 44C35.0457 44 44 35.0457 44 24C44 12.9543 35.0457 4 24 4C12.9543 4 4 12.9543 4 24C4 35.0457 12.9543 44 24 44ZM24 46C36.1503 46 46 36.1503 46 24C46 11.8497 36.1503 2 24 2C11.8497 2 2 11.8497 2 24C2 36.1503 11.8497 46 24 46Z" />
<path fill-rule="evenodd" clip-rule="evenodd" d="M33.7213 14.5375C34.0302 14.4074 34.3683 14.3626 34.7004 14.4076C35.0325 14.4526 35.3465 14.5858 35.6097 14.7933C35.8728 15.0008 36.0756 15.2751 36.1968 15.5876C36.318 15.9 36.3532 16.2393 36.2988 16.57L33.4638 33.7662C33.1888 35.425 31.3688 36.3762 29.8476 35.55C28.5751 34.8587 26.6851 33.7937 24.9851 32.6825C24.1351 32.1262 21.5313 30.345 21.8513 29.0775C22.1263 27.9937 26.5013 23.9212 29.0013 21.5C29.9826 20.5487 29.5351 20 28.3763 20.875C25.4976 23.0475 20.8788 26.3512 19.3513 27.2812C18.0038 28.1012 17.3013 28.2412 16.4613 28.1012C14.9288 27.8462 13.5076 27.4512 12.3476 26.97C10.7801 26.32 10.8563 24.165 12.3463 23.5375L33.7213 14.5375Z" />
</svg>
