<svg viewBox="0 0 48 48" xmlns="http://www.w3.org/2000/svg">
<path fill-rule="evenodd" clip-rule="evenodd" d="M24 44C35.0457 44 44 35.0457 44 24C44 12.9543 35.0457 4 24 4C12.9543 4 4 12.9543 4 24C4 35.0457 12.9543 44 24 44ZM24 46C36.1503 46 46 36.1503 46 24C46 11.8497 36.1503 2 24 2C11.8497 2 2 11.8497 2 24C2 36.1503 11.8497 46 24 46Z" />
<path d="M35.8788 31.9762H33.0275C31.9488 31.9762 31.6238 31.1024 29.69 29.1674C28 27.5387 27.2862 27.3362 26.8587 27.3362C26.2675 27.3362 26.1063 27.4987 26.1063 28.3124V30.8774C26.1063 31.5712 25.8813 31.9774 24.0688 31.9774C22.3104 31.8593 20.6052 31.3251 19.0937 30.4189C17.5822 29.5126 16.3077 28.2603 15.375 26.7649C13.1605 24.0087 11.6196 20.7738 10.875 17.3174C10.875 16.8899 11.0375 16.5024 11.8525 16.5024H14.7025C15.435 16.5024 15.6988 16.8287 15.9863 17.5824C17.37 21.6549 19.7313 25.1974 20.69 25.1974C21.0575 25.1974 21.2175 25.0349 21.2175 24.1187V19.9237C21.0963 18.0099 20.08 17.8487 20.08 17.1562C20.0929 16.9735 20.1764 16.803 20.313 16.6809C20.4495 16.5589 20.6283 16.4948 20.8113 16.5024H25.2912C25.9038 16.5024 26.1063 16.8074 26.1063 17.5399V23.2024C26.1063 23.8137 26.3688 24.0162 26.5538 24.0162C26.9213 24.0162 27.2038 23.8137 27.8775 23.1412C29.3217 21.3799 30.5016 19.4176 31.38 17.3162C31.4699 17.0639 31.6399 16.8479 31.864 16.7012C32.0881 16.5545 32.354 16.4851 32.6212 16.5037H35.4725C36.3275 16.5037 36.5087 16.9312 36.3275 17.5412C35.2905 19.8642 34.0073 22.0693 32.5 24.1187C32.1925 24.5874 32.07 24.8312 32.5 25.3812C32.7825 25.8087 33.7825 26.6437 34.4538 27.4374C35.4313 28.4124 36.2425 29.5399 36.8562 30.7749C37.1012 31.5699 36.6925 31.9762 35.8788 31.9762Z" />
</svg>
