<svg viewBox="0 0 48 48" xmlns="http://www.w3.org/2000/svg">
<path fill-rule="evenodd" clip-rule="evenodd" d="M24 44C35.0457 44 44 35.0457 44 24C44 12.9543 35.0457 4 24 4C12.9543 4 4 12.9543 4 24C4 35.0457 12.9543 44 24 44ZM24 46C36.1503 46 46 36.1503 46 24C46 11.8497 36.1503 2 24 2C11.8497 2 2 11.8497 2 24C2 36.1503 11.8497 46 24 46Z" />
<path d="M24.305 14C24.9725 14.0038 26.6425 14.02 28.4175 14.0912L29.0475 14.1187C30.8338 14.2025 32.6188 14.3475 33.505 14.5937C34.6863 14.9262 35.6137 15.8938 35.9275 17.1213C36.4275 19.0713 36.49 22.8738 36.4975 23.795L36.4988 23.985V24.2025C36.49 25.1237 36.4275 28.9275 35.9275 30.8762C35.61 32.1075 34.6813 33.0763 33.505 33.4038C32.6188 33.65 30.8338 33.795 29.0475 33.8787L28.4175 33.9075C26.6425 33.9775 24.9725 33.995 24.305 33.9975L24.0112 33.9988H23.6925C22.28 33.99 16.3725 33.9263 14.4925 33.4038C13.3125 33.0713 12.3838 32.1037 12.07 30.8762C11.57 28.9262 11.5075 25.1237 11.5 24.2025V23.795C11.5075 22.8738 11.57 19.07 12.07 17.1213C12.3875 15.89 13.3163 14.9212 14.4937 14.595C16.3725 14.0712 22.2813 14.0075 23.6938 14H24.305ZM21.4987 19.625V28.375L28.9987 24L21.4987 19.625Z" />
</svg>
